<svg xmlns="http://www.w3.org/2000/svg" xmlns:xlink="http://www.w3.org/1999/xlink" version="1.1" x="0px" y="0px" enable-background="new 0 0 256 256" xml:space="preserve" viewBox="46.6 9.99 162.2 236.17">
<metadata> Svg Vector Icons : http://www.onlinewebfonts.com/icon </metadata>
<g><g><path fill="#858680" d="M152.1,146.4c-2.1-8-8.4-28.6-17-38.9c-0.9-1.1-1.8-2-2.7-2.8c-2.3-2-6.2-5.3-7.4-7.8c-1.6-3.4-2.1-15.5-1.2-19.2c-0.4-0.1-0.7-0.2-1.1-0.3c0.2-4.6-2-8.8-4-12.8c-0.9-1.8-5.4-11.4-4.9-13c0.1,0.2,0.3,0.3,0.4,0.5c0,0,0,0,0,0c0,0,0,0,0,0c0.2,0.2,0.4,0.4,0.6,0.5c0,0,0,0,0,0c0.2,0.2,0.4,0.3,0.6,0.4c0,0,0,0,0,0c0.2,0.1,0.4,0.3,0.6,0.4l0,0c0.6,0.3,1.2,0.5,1.8,0.6h0c0.2,0,0.3,0,0.5,0c0,0,0,0,0,0c0.2,0,0.3,0,0.5,0c0,0,0,0,0,0c0.1,0,0.3,0,0.4-0.1c0,0,0,0,0,0c0.1,0,0.3-0.1,0.4-0.1c0,0,0,0,0,0c0.1,0,0.2-0.1,0.3-0.1c0,0,0,0,0,0c0.1,0,0.2-0.1,0.3-0.2l0,0c0.1-0.1,0.2-0.1,0.2-0.2l0,0c0.1-0.1,0.1-0.1,0.2-0.2c0,0,0,0,0,0c0-0.1,0.1-0.2,0.1-0.3c0,0,0,0,0,0c0-0.1,0-0.2,0-0.3c1.1,1.7,5.7,0,5.6-3c0-0.6-0.2-1.2-0.6-1.8c0.7-0.2,1-0.9,1-1.8c0-0.1,0-0.3,0-0.5c0-0.1,0-0.3-0.1-0.5c-0.1-0.4-0.2-0.7-0.3-1.1c-0.1-0.4-0.3-0.7-0.5-1.1c-0.1-0.1-0.1-0.2-0.2-0.4c-0.2-0.4-0.5-0.7-0.8-1c-0.6-0.6-1.3-1.1-2-1.1c0.8-0.5,1.5-2.6,1.7-4.9c0.1-2.1-0.2-4.5-1.4-5.7c0-1.2-0.5-2.1-1.2-2.8c-0.8-0.9-2-1.5-3-2.1c-0.2-0.1-0.4-0.2-0.6-0.3c-0.2-0.1-0.5-0.2-0.7-0.3c-2.8-1-6.3-1.1-7.9-1c-1.6,0.2-2.7,0.4-3.2,1.4c-0.1,0.1-0.1,0.3-0.2,0.5l-0.1,0l0,0c-1.5,1-3.8,2.7-4.5,4.2c-0.7,1.5-0.1,2.3-1.3,3.3c-0.8,0.7-1.8,1.1-3.3,1.5c-0.5,0.1-0.7,0-0.4,0.6l1,1.4l-1.3,1c0.2,0.8,0.5,1.5,1.1,2c-0.5,0-0.7-0.1-1.3,0.1c0.1,0.4,0.2,1.2,0,1.6c-0.1,0.2-0.3,0.4-0.7,0.9c-0.3,0.3-0.4,0.9-0.4,1.3c0.1,3,6.7,1.6,8.5,3.3c0.8,0.8,2.5,8.7,2.7,11.5c0.2,3,0,4,0,4s-1.1,2.4-1.4,3.3c-0.8,2.8-2.3,4.7-3.9,6.6c-0.7,0.8-3.9,3.9-4.2,6.5c-0.3,2.6,2.9,7.7,5.6,8.9l0,0c-0.4,3.4-1.1,9.8-1.5,11.2c-0.5,1.7-7.1,19.1-8.9,23.9c-0.8-0.4-1.8-0.7-2.6-0.9c-0.3-0.1-0.5-0.2-0.7-0.3l0,0l3.3-3c0,0,0,0,0-0.1c-0.1-0.5-2.1-3-3.7-5.1c-0.5-0.7-0.9-1.3-1.2-1.8c-1.8-2.7-2.5-5.3-5.2-11.3c0.4-8.9,2.6-17,2.6-25.9c0-5.3-2.1-14-3.5-23.2c-0.2-1.1-0.5-2.2-1-3.3c-0.5-1.2-1.3-2.4-2-3.6c-0.3-0.5-0.7-1-1.1-1.5l3.2-3.1c0.4-0.4,4.5,1.7,5.8,1.8c1.3,0.1,2-1.4,2.1-2.2c0.2-0.8,0.2-1,0.5-1.2c0.4-0.2,0.9,0,1.2-0.4c0.2-0.2-0.4-1-0.5-1.3c0.6,0,2.1-0.2,2-0.7c0-0.6-0.3-0.5-0.1-1.2l1.6-0.1c0.3,0,0.7-0.2,0.7-0.6c-0.3-1.7-1.1-4.3-1-4.7c0.1-0.5,0.5-0.6,0.8-1c0.5-0.6,0-2.4,0.7-4.2c0.1-0.1,0.1-0.2,0.2-0.3c0.9,0.4,1.6-0.2,1.9-2.6c0.4-2.6-2-6-3.9-7.3c-4.3-3-8.5-4-14-1.9c0,0,0,0-0.1,0c-1,0.4-1.8,0.9-2.3,1.3c-0.3,0.2-0.5,0.4-0.5,0.4c0,0,0,0-0.1,0c-1,0.3-2.4,1.3-3.3,2.7c-0.4,0.7-0.8,1.4-1,2.2c-0.6,2.7-1.1,7.2-1.2,9.1c-0.1,1.1-2,4.5-1.7,4.2c0.2,0.1,0.3,0.3,0.5,0.4l-1,1.2l0,0l0,0c-1.1-0.9-1.4-1.2-1.5-1.2c-0.1,0-0.6,2.2-1,3.3c0,0.1,0,0.1-0.1,0.2c-0.4,1-5.8,6.8-8.8,9.2c-2.9,2.3-6.7,22.4-6.6,28.4c0,1.5,0.1,3.3,0.1,5.4c0,0.5,0,1.1,0,1.6c0,0.3,0,0.6,0,0.8c-0.1,10.1-0.7,24.6-1.5,35.9c-0.1,0.9-0.1,1.9-0.2,2.8c-0.4,4.2-0.8,7.8-1.2,10.4c0,0,1,0.4,2.9,1.3v0.1l0,0c0.7,9.4,2.6,27.9,2.7,30.2c0,2.3,0.4,8.5,0.4,10.9s-3.7,16.9-3.9,21.5c-0.2,4.7-0.1,12.9,0.1,17c0.2,4.1,1,16.4,1.2,18.6c0.2,2.2-0.8,6.8-1.2,8c-0.1,0.4-0.3,1-0.4,1.2c-0.1,0.3,1,0,1.7-0.1l0.1,1.7h8.4l2-2.1l2.1,2.1l20.2,0c1.4-0.2,3.9-0.6,3.4-1.7c-0.5-1.1-7.9-1.7-9.2-2.3c-1.3-0.6-2.6-1.6-4.2-2.8c1-0.2,1.7-0.4,1.6-0.6c-0.8-1.1-5.4-4.9-6.1-10.9c-0.7-6,5-48.7,5-48.7L79,132c1-0.3,1.6-0.7,1.7-1c0-0.1,0-1.1,0-2.1c0-0.1,0-0.3,0-0.5c0-1.3,0-2.7,0.1-3.4c0,0,0,0.1,0.1,0.1c0,0,0,0,0,0c0,0,0,0,0.1,0c0,0,0,0,0,0c0,0,0.1,0,0.1,0l0,0c0,0,0.1,0,0.1,0c0,0,0,0,0,0c0,0,0.1,0,0.1,0c0,0,0.1,0,0.1,0h0c0,0,0.1,0,0.1,0h0c0,0,0.1,0,0.1,0l0,0c0.1,0,0.1,0.1,0.2,0.3c0.4,1.3,1,2.6,1.8,3.3c-0.6,1.3-1.2,2.6-1.7,3.8c-0.2,0.5-0.5,0.9-0.6,1.4c0,0.3,0.7,0.1,0.9-0.2l1.4-2.5l-0.8,3.5c-0.3,0.8,0.5,0.8,1.1-0.2l2-3.8c0,0,1.6,0,3.5,0.1c-0.8,1.1-2.2,1.4-2.2,1.4s-2.1-0.6-1.6,0.6c0.6,1.2,2.5,0.4,2.5,0.4c0,0.7,1.1,1,1.8,0.8c1.4-0.4,3.1-1.5,3.9-2.5l0.7-0.4c0.6,0,1.1,0,1.4,0c1.6,0,2.5-5.1,2.9-6.6c0.4-1.5,11.6-22,12.8-24.3l0,0l0.1-0.2c0.2,0.9,0.4,1.7,0.5,2.4c0.8,3.4,1.4,5.8,2.4,9.3c4.7,16.6,1.3,108.8-2.2,126.8c0,0,0,0.1,0,0.1c0,0.2-0.1,0.4-0.1,0.6c-0.3,1.3-0.6,2.1-0.8,2.3l0,0l0,0c8,7,77.8,6.5,97.3-4.2C188,235.4,157.5,166.8,152.1,146.4z"/><path fill="#858680" d="M134.8,52.5c1.7,4.6,0.7,13.9,3.4,16.2c2.1,1.8,4.3-2.9,6.1-5.2c1.3-1.7,2.4-2.3,3,0.8c1.7,8.7,6.9,3.9,12.7-1.5c5.6-5.2,11.7-11,16.1-6.2c2.5,2.6,4.4,5.9,7.2,7.2c5.7,2.7,12.2,0.5,14.7-6.8l0.7-0.8c-3.1,8.9-10.2,12.1-16.2,9.2c-2.8-1.3-4.7-4.6-7.2-7.2c-4.3-4.7-10.4,1-15.9,6.1c-5.9,5.5-11.2,10.5-12.9,1.5c-0.6-2.9-1.5-2.4-2.6-1.1c-1.9,2.5-4.2,7.5-6.5,5.5c-2.7-2.3-1.7-11.6-3.4-16.3c-2-5.5-6.4-8.4-9.2-5.4C126.9,44.7,133,47.8,134.8,52.5L134.8,52.5z"/><path fill="#858680" d="M140.7,58.9c1.3,8.1,5.1,19,9,17.1c3-1.5,5.1-8.3,7.2-12.5c1.8-3.7,10.5-19.1,11.7-13.6c0.4,1.7-0.3,5.3-0.9,8.6c-0.5,2.7-1,5.3-0.8,6.2c0.2,0.9,1.2,0.2,3.5-3.6c3.8-6,7.9-11.6,12.5-9.5l-0.8,1.5c-4.4-2-8.2,3-11.8,8.8c-2.8,4.5-3.9,5.3-4.2,4.2c-0.2-1,0.2-3.6,0.8-6.5c0.6-3.2,1.3-6.7,0.9-8.3c-1.1-4.9-8.7,9.2-10.4,12.6c-2.4,4.8-4.9,12-8.3,13.7c-4,2-7.8-8.9-9.1-17.2c-2.6-15.8-9.2-17.3-15.1-11.7C130.9,39,138,42.4,140.7,58.9L140.7,58.9z"/><path fill="#858680" d="M147.3,87.6c0.8-0.2,1.4-0.2,1.8,0.3c0.5,0.6,0.4,1.5-0.3,2.1c-1.2,1-3.3,0.9-5.5,0.8c0.3-2.1,0.6-4.2,1.9-5.2c0.7-0.6,1.6-0.5,2.1,0.1C147.8,86.3,147.7,86.8,147.3,87.6L147.3,87.6z"/><path fill="#858680" d="M158.6,102.2c0.7-0.7,1.3-1,2.1-0.7c0.9,0.3,1.3,1.4,0.9,2.4c-0.7,1.8-2.9,2.9-5.2,4c-0.9-2.4-1.8-4.7-1.1-6.5c0.4-1,1.4-1.5,2.2-1.2C158.3,100.6,158.5,101.2,158.6,102.2L158.6,102.2z"/></g></g>
</svg>