<svg xmlns="http://www.w3.org/2000/svg" xmlns:xlink="http://www.w3.org/1999/xlink" version="1.1" x="0px" y="0px" enable-background="new 0 0 100 100" xml:space="preserve" viewBox="14.54 0.89 70.92 98.23"><path d="M47.3916016,59.8098145c-0.2792969-0.4765625-0.1191406-1.0898438,0.3574219-1.3681641  c0.4750977-0.2822266,1.0888672-0.1201172,1.3681641,0.3564453c0.2089844,0.3574219,0.890625,0.71875,1.7875977,0.71875  c0.8974609,0,1.5786133-0.3613281,1.7871094-0.7177734c0.277832-0.4775391,0.8901367-0.6386719,1.3686523-0.3583984  c0.4765625,0.2792969,0.6367188,0.8916016,0.3579102,1.3681641c-0.6074219,1.0380859-1.9863281,1.7080078-3.5136719,1.7080078  C49.378418,61.5168457,47.9995117,60.8469238,47.3916016,59.8098145z M37.0703125,41.4851074  c-0.4477539,0.3203125-0.550293,0.9414063-0.2319336,1.390625c0.3193359,0.449707,0.9423828,0.5546875,1.3925781,0.237793  c0.1323242-0.0922852,3.2519531-2.2373047,6.1152344,0.1171875c0.1860352,0.152832,0.4111328,0.2275391,0.6347656,0.2275391  c0.2885742,0,0.5751953-0.1245117,0.7729492-0.3647461c0.3505859-0.4262695,0.2895508-1.0566406-0.137207-1.4077148  C42.3691406,39.013916,38.6054688,40.3859863,37.0703125,41.4851074z M56.8291016,43.458252  c0.2236328,0,0.4487305-0.074707,0.6347656-0.2275391c2.8588867-2.3535156,5.9790039-0.2124023,6.1147461-0.1171875  c0.4492188,0.3183594,1.0712891,0.2143555,1.3925781-0.2333984c0.3212891-0.4487305,0.2177734-1.0737305-0.2314453-1.3950195  c-1.5361328-1.1000977-5.2998047-2.472168-8.5463867,0.2006836c-0.4267578,0.3510742-0.487793,0.9814453-0.137207,1.4077148  C56.2539063,43.3337402,56.5405273,43.458252,56.8291016,43.458252z M50.4331055,54.4025879  c0.0454102,0,0.0913086-0.0019531,0.137207-0.0058594l1.809082-0.1601563  c0.5498047-0.0488281,0.956543-0.5341797,0.9077148-1.0839844c-0.0483398-0.550293-0.5239258-0.9526367-1.0844727-0.9082031  l-1.5830078,0.1401367c-0.0551758-0.1181641-0.1137695-0.3198242-0.1049805-0.5498047l0.3525391-2.7856445  c0.0693359-0.5478516-0.3188477-1.0483398-0.8666992-1.1176758c-0.5424805-0.0673828-1.0478516,0.3188477-1.1176758,0.8666992  l-0.359375,2.8637695c-0.0429688,0.9125977,0.2446289,1.7583008,0.7700195,2.2631836  C49.6171875,54.2355957,50.0175781,54.4025879,50.4331055,54.4025879z M45.1676636,47.0344238  c0.0231323-0.0178223,0.0470581-0.0280762,0.0701294-0.0463867c0.4321289-0.34375,0.5043945-0.9726563,0.1611328-1.4052734  c-0.34375-0.4326172-0.9741211-0.5043945-1.4052734-0.1611328c-1.9663086,1.5629883-4.1357422,0.1337891-4.2236328,0.074707  c-0.4550781-0.3134766-1.0766602-0.2001953-1.3911133,0.2543945c-0.3017578,0.4364624-0.1997681,1.022522,0.2115479,1.3466797  l-0.2955322,0.3139648c-0.2651367,0.2817383-0.2514648,0.7246094,0.0297852,0.9897461  c0.1352539,0.1274414,0.3076172,0.1904297,0.4799805,0.1904297c0.1860352,0,0.3720703-0.0742188,0.5097656-0.2202148  l0.5723877-0.6081543c0.3982544,0.1448975,0.8431396,0.2512207,1.3216553,0.3144531v0.3015137  c0,0.3867188,0.3134766,0.7001953,0.7001953,0.7001953s0.7001953-0.3134766,0.7001953-0.7001953v-0.2838135  c0.4299927-0.0524292,0.8671875-0.1705933,1.3058472-0.348938l0.5881958,0.624939  c0.1376953,0.1459961,0.3237305,0.2202148,0.5097656,0.2202148c0.1723633,0,0.3447266-0.0634766,0.4799805-0.1904297  c0.28125-0.2651367,0.2949219-0.7080078,0.0297852-0.9897461L45.1676636,47.0344238z M63.1601563,47.0341797  c0.0230103-0.0177002,0.046875-0.0278931,0.0698242-0.0461426c0.4326172-0.34375,0.5048828-0.9726563,0.1611328-1.4052734  c-0.34375-0.4321289-0.9736328-0.5048828-1.4052734-0.1611328c-1.9663086,1.5629883-4.1362305,0.1337891-4.2231445,0.074707  c-0.4545898-0.3134766-1.0771484-0.2001953-1.3911133,0.2543945c-0.3017578,0.4364624-0.1997681,1.022522,0.2115479,1.3466797  l-0.2955322,0.3139648c-0.2651367,0.2817383-0.2514648,0.7246094,0.0297852,0.9897461  c0.1352539,0.1274414,0.3076172,0.1904297,0.4799805,0.1904297c0.1860352,0,0.3720703-0.0742188,0.5097656-0.2202148  l0.5723877-0.6081543c0.3982544,0.1448975,0.8431396,0.2512207,1.3216553,0.3144531v0.3015137  c0,0.3867188,0.3134766,0.7001953,0.7001953,0.7001953c0.3862305,0,0.699707-0.3134766,0.699707-0.7001953v-0.2837524  c0.4301147-0.0523071,0.8674316-0.1705933,1.3062134-0.3491211l0.5883179,0.625061  c0.1376953,0.1459961,0.3232422,0.2202148,0.5097656,0.2202148c0.171875,0,0.3447266-0.0634766,0.4794922-0.1904297  c0.2822266-0.2651367,0.2949219-0.7080078,0.0302734-0.9897461L63.1601563,47.0341797z M81.4858398,89.302002v8.8105469  c0,0.5527344-0.4472656,1-1,1s-1-0.4472656-1-1v-1.4387207V89.302002c0-2.1946411-0.5438232-4.2883911-1.4969482-6.1533813  l-6.6497803,1.8024902l-9.5124512,2.5784302c-3.5727539,0.96875-7.2470703,1.4521484-10.9213867,1.4521484  c-3.6748047,0-7.3491211-0.4833984-10.9213867-1.4521484l-9.4731445-2.567627l-6.7305298-1.8242188  c-0.9307861,1.8556519-1.4559937,3.9486084-1.4559937,6.1662598v7.3771973v1.4313965c0,0.5527344-0.4477539,1-1,1s-1-0.4472656-1-1  v-8.8085938c0-7.8144531,5.6098633-14.3291016,13.3388672-15.4892578l5.1766968-0.776123l3.0239868-0.4533691  c0.5625-0.0839844,0.9711914-0.5585938,0.9711914-1.1269531v-4.138916v-0.9431763  c-1.2088013-0.8114014-2.3428345-1.7472534-3.3889771-2.7835083l-3.1266479-1.0992432  c-5.4736328-2.6933594-9.5922852-7.34375-11.2998047-12.7578125c-0.9155273-2.9008789-1.3935547-5.7929688-1.3461914-8.1430664  c0.2075195-10.1557617,3.0957031-17.6928711,8.5839844-22.4018555c1.053772-0.9042969,2.1470947-1.6393433,3.2467041-2.262146  c0.2056885-0.8313599,0.6827393-1.5485229,1.3314209-2.0682983c-0.0019531-0.0725708-0.0146484-0.1430664-0.0146484-0.2159424  c0-5.8071289,6.3178711-10.5317383,14.0839844-10.5317383s14.0839844,4.7246094,14.0839844,10.5317383  c0,0.0728149-0.0126953,0.1432495-0.0146484,0.2157593c0.7438965,0.5960083,1.2575684,1.4540405,1.3998413,2.4403076  c0.9996948,0.5944214,1.9846802,1.2767944,2.9321899,2.0812378c5.9423828,5.0454102,8.9140625,13.1967773,8.8320313,24.2285156  c-0.0205078,2.7016602-0.7001953,5.4936523-2.0771484,8.534668c-2.0673828,4.5664063-5.9248047,8.3447266-10.8632813,10.6376953  l-0.1113281,0.0439453l-2.9083252,0.9462891c-0.9933472,0.9634399-2.0667725,1.8330078-3.2030029,2.5965576v0.7907715v4.2982178  c0,0.5683594,0.4086914,1.0429688,0.9711914,1.1269531l3.1248169,0.46875l5.0778198,0.7617188  C75.7524414,74.9562988,81.4858398,81.6135254,81.4858398,89.302002z M62.5874023,16.0046387  c-1.015625,0-1.8417969,0.8261719-1.8417969,1.8417969s0.8261719,1.8417969,1.8417969,1.8417969  s1.8417969-0.8261719,1.8417969-1.8417969S63.6030273,16.0046387,62.5874023,16.0046387z M38.8640747,14.0408325  c0.1196899-0.0112915,0.2354736-0.0361938,0.3580933-0.0361938c0.7843018,0,1.5131226,0.2385254,2.1217651,0.6436768  c0.0170288-0.0040283,0.03479-0.0093384,0.0518799-0.0133667c0.4700928-1.590332,1.927063-2.7616577,3.6676636-2.7616577  c0.9536133,0,1.8162842,0.3621216,2.4887085,0.9395752c0.6539307-1.1884155,1.9031372-2.0050049,3.3526001-2.0050049  s2.6989136,0.8165283,3.3529663,2.0048828c0.6723022-0.5773926,1.53479-0.9394531,2.4883423-0.9394531  c1.7548218,0,3.2230225,1.1900024,3.680603,2.800354c0.6162109-0.4211426,1.3596191-0.6690063,2.1607056-0.6690063  c0.1226196,0,0.2384033,0.0249023,0.3580933,0.0361938c-0.4416504-4.4229736-5.6661377-7.9282837-12.0407104-7.9282837  S39.3057251,9.6178589,38.8640747,14.0408325z M56.7460938,13.873291c-1.0151367,0-1.8413086,0.8261719-1.8413086,1.8417969  s0.8261719,1.8417969,1.8413086,1.8417969c1.015625,0,1.8417969-0.8261719,1.8417969-1.8417969  S57.7617188,13.873291,56.7460938,13.873291z M50.9047852,12.8078613c-1.0151367,0-1.8413086,0.8261719-1.8413086,1.8417969  c0,1.0151367,0.8261719,1.8413086,1.8413086,1.8413086c1.015625,0,1.8417969-0.8261719,1.8417969-1.8413086  C52.746582,13.6340332,51.9204102,12.8078613,50.9047852,12.8078613z M45.0634766,13.873291  c-1.0151367,0-1.8413086,0.8261719-1.8413086,1.8417969s0.8261719,1.8417969,1.8413086,1.8417969  c1.015625,0,1.8417969-0.8261719,1.8417969-1.8417969S46.0791016,13.873291,45.0634766,13.873291z M37.3808594,17.8464355  c0,1.015625,0.8261719,1.8417969,1.8413086,1.8417969c1.015625,0,1.8417969-0.8261719,1.8417969-1.8417969  s-0.8261719-1.8417969-1.8417969-1.8417969C38.2070313,16.0046387,37.3808594,16.8308105,37.3808594,17.8464355z   M36.7796631,60.4667358c-1.677063-2.3425903-2.9490356-4.9904175-3.6878052-7.7857056  c-2.2363281-0.1675415-4.3275146-2.1072388-4.9868774-3.7901611c-0.40625-1.0371094-0.3588867-2.1645508,0.1337891-3.1738281  c0.5527344-1.1333008,1.6230469-2.0083008,2.9370117-2.3999023c0.0367432-0.0109253,0.0741577-0.012207,0.1110229-0.0223389  c-0.2642822-1.5127563-0.5187988-2.9983521-0.741394-4.3150635c-0.0966797-0.5727539,0.0664063-1.1503906,0.4482422-1.5849609  c0.3833008-0.4365234,0.9404297-0.6655273,1.5200195-0.6518555c3.625,0.1469727,12.6469727-0.2504883,17.9907227-6.8286133  c0.3354492-0.4130859,0.8339844-0.6660156,1.3681641-0.6948242c0.546875-0.0307617,1.0795898,0.175293,1.4677734,0.5600586  c2.1054688,2.0888672,7.9111328,6.9316406,16.0361328,6.9013672c0.0029297,0,0.0058594,0,0.0078125,0  c0.5595703,0,1.0878906,0.2451172,1.4511719,0.6728516c0.3681641,0.434082,0.5244141,1.0043945,0.4296875,1.565918  c-0.2252197,1.3320923-0.4832153,2.8381348-0.7514648,4.3731079c0.0400391,0.0109253,0.0806885,0.0124512,0.1206055,0.024353  c1.3144531,0.3916016,2.3847656,1.2666016,2.9375,2.3999023c0.4921875,1.0092773,0.5400391,2.1367188,0.1328125,3.1738281  c-0.6594238,1.6849365-2.7574463,3.6282349-4.9968262,3.7911377c-0.7658081,2.8973389-2.1040039,5.6363525-3.8724365,8.0408325  c4.2684937-2.1091309,7.6018677-5.4231567,9.4034424-9.4032593c1.2597656-2.78125,1.8808594-5.3081055,1.8994141-7.7246094  c0.0771484-10.4111328-2.6572266-18.0449219-8.1269531-22.6884766c-0.6322021-0.5367432-1.2856445-1.0131836-1.9501953-1.4452515  c-0.6123657,1.310791-1.934082,2.2269897-3.4736328,2.2269897c-1.7550049,0-3.2225342-1.1901855-3.6798096-2.8007202  c-0.6165161,0.4213867-1.3602295,0.6693726-2.161499,0.6693726c-1.449585,0-2.6988525-0.8166504-3.3527222-2.005188  c-0.6724243,0.5772705-1.5350342,0.93927-2.4885864,0.93927s-1.815979-0.3619385-2.4882202-0.939209  c-0.6540527,1.1884155-1.9035645,2.005127-3.3530884,2.005127c-0.8012085,0-1.5447388-0.2480469-2.1610718-0.6693115  c-0.4573975,1.6104126-1.925293,2.8006592-3.6802368,2.8006592c-1.644043,0-3.0386963-1.043396-3.5858154-2.4986572  c-0.7111206,0.4517212-1.4151611,0.949646-2.0953369,1.53479c-5.0258789,4.3237305-7.6728516,11.3588867-7.8676758,20.9091797  c-0.043457,2.1376953,0.4018555,4.8012695,1.253418,7.5004883C28.4259033,53.8878174,32.0097046,57.986145,36.7796631,60.4667358z   M71.8432617,48.161377c0.2558594-0.6538086,0.1035156-1.2133789-0.0693359-1.5678711  c-0.2944946-0.6029663-0.880127-1.0748291-1.6098022-1.3188477c-0.3392944,1.9022827-0.6798096,3.7438965-0.9869995,5.2965698  C70.3359985,50.1975098,71.4761963,49.0978394,71.8432617,48.161377z M31.6365356,45.2783813  c-0.7252197,0.2450562-1.3076782,0.7148438-1.6004028,1.3151245c-0.1728516,0.3544922-0.3251953,0.9140625-0.0688477,1.5678711  c0.3654785,0.9341431,1.498291,2.0314941,2.6547852,2.4076538C32.3165894,49.0253296,31.9761963,47.1835327,31.6365356,45.2783813z   M47.4711914,66.5949707c2.1796875,0.8769531,4.6782227,0.8769531,6.8569336,0  c0.987854-0.3972778,1.9385986-0.8911743,2.8532104-1.4526978c0.147644-0.2020874,0.3616943-0.338501,0.6174927-0.3858032  c4.6191406-3.0724487,8.0976563-8.1217651,9.2416992-13.6971436c0.7089844-3.4545898,1.6982422-9.1967773,2.2363281-12.3779297  c-0.0009766,0-0.0019531,0-0.0019531,0c-8.7675781,0-14.9643555-5.1391602-17.2851563-7.4243164  c-5.8710938,7.140625-15.4819336,7.6235352-19.4555664,7.4882813c0.6513672,3.8510742,1.5605469,9.0761719,2.2250977,12.3139648  C36.1748047,57.9602051,41.1645508,64.0578613,47.4711914,66.5949707z M76.9125977,81.3688354  c-2.0983276-2.9210205-5.3193359-5.013916-9.0605469-5.574646L64.640625,75.312439l-4.9912109-0.7487183  c-1.5498047-0.2333984-2.6743164-1.5390625-2.6743164-3.1054688V67.557312  c-0.6210327,0.3267822-1.2518921,0.6323853-1.9003906,0.8931274c-1.3457031,0.5419922-2.7602539,0.8125-4.1748047,0.8125  s-2.8286133-0.2705078-4.175293-0.8125c-0.6447754-0.2593384-1.2720337-0.5631714-1.8896484-0.8877563v3.8955688  c0,1.5664063-1.1245117,2.8720703-2.6743164,3.1054688l-4.899353,0.7345581l-3.3013306,0.4949341  c-3.8139648,0.5723267-7.0343018,2.6404419-9.1139526,5.5617676l6.8814087,1.8651733l8.7799072,2.3796997  c6.8017578,1.8447266,13.9931641,1.8447266,20.7958984,0l8.8244019-2.3919067L76.9125977,81.3688354z M84.7084961,30.166748  H82.987793v-1.7202148c0-0.4140625-0.3359375-0.75-0.75-0.75s-0.75,0.3359375-0.75,0.75v1.7202148h-1.7207031  c-0.4140625,0-0.75,0.3359375-0.75,0.75s0.3359375,0.75,0.75,0.75h1.7207031v1.7207031c0,0.4140625,0.3359375,0.75,0.75,0.75  s0.75-0.3359375,0.75-0.75V31.666748h1.7207031c0.4140625,0,0.75-0.3359375,0.75-0.75S85.1225586,30.166748,84.7084961,30.166748z   M68.4165039,11.8039551h1.625v1.625c0,0.4140625,0.3359375,0.75,0.75,0.75s0.75-0.3359375,0.75-0.75v-1.625h1.625  c0.4140625,0,0.75-0.3359375,0.75-0.75s-0.3359375-0.75-0.75-0.75h-1.625v-1.625c0-0.4140625-0.3359375-0.75-0.75-0.75  s-0.75,0.3359375-0.75,0.75v1.625h-1.625c-0.4140625,0-0.75,0.3359375-0.75,0.75S68.0024414,11.8039551,68.4165039,11.8039551z   M15.4165039,37.595459v0.125c0,0.4140625,0.3359375,0.75,0.75,0.75s0.75-0.3359375,0.75-0.75v-0.125h0.125  c0.4140625,0,0.75-0.3359375,0.75-0.75s-0.3359375-0.75-0.75-0.75h-0.125v-0.125c0-0.4140625-0.3359375-0.75-0.75-0.75  s-0.75,0.3359375-0.75,0.75v0.125h-0.125c-0.4140625,0-0.75,0.3359375-0.75,0.75s0.3359375,0.75,0.75,0.75H15.4165039z   M39.2915039,3.2624512h0.125v0.125c0,0.4140625,0.3359375,0.75,0.75,0.75s0.75-0.3359375,0.75-0.75v-0.125h0.125  c0.4140625,0,0.75-0.3359375,0.75-0.75s-0.3359375-0.75-0.75-0.75h-0.125v-0.125c0-0.4140625-0.3359375-0.75-0.75-0.75  s-0.75,0.3359375-0.75,0.75v0.125h-0.125c-0.4140625,0-0.75,0.3359375-0.75,0.75S38.8774414,3.2624512,39.2915039,3.2624512z   M21.4165039,54.9709473c0-0.4140625-0.3359375-0.75-0.75-0.75h-1.625V52.595459c0-0.4140625-0.3359375-0.75-0.75-0.75  s-0.75,0.3359375-0.75,0.75v1.6254883h-1.625c-0.4140625,0-0.75,0.3359375-0.75,0.75s0.3359375,0.75,0.75,0.75h1.625v1.625  c0,0.4140625,0.3359375,0.75,0.75,0.75s0.75-0.3359375,0.75-0.75v-1.625h1.625  C21.0805664,55.7209473,21.4165039,55.3850098,21.4165039,54.9709473z M21.5732422,18.3874512h1.8847656v1.8847656  c0,0.4140625,0.3359375,0.75,0.75,0.75s0.75-0.3359375,0.75-0.75v-1.8847656h1.8847656c0.4140625,0,0.75-0.3359375,0.75-0.75  s-0.3359375-0.75-0.75-0.75h-1.8847656v-1.8847656c0-0.4140625-0.3359375-0.75-0.75-0.75s-0.75,0.3359375-0.75,0.75v1.8847656  h-1.8847656c-0.4140625,0-0.75,0.3359375-0.75,0.75S21.1591797,18.3874512,21.5732422,18.3874512z M83.1665039,54.0539551h-0.125  v-0.125c0-0.4140625-0.3359375-0.75-0.75-0.75s-0.75,0.3359375-0.75,0.75v0.125h-0.125c-0.4140625,0-0.75,0.3359375-0.75,0.75  s0.3359375,0.75,0.75,0.75h0.125v0.125c0,0.4140625,0.3359375,0.75,0.75,0.75s0.75-0.3359375,0.75-0.75v-0.125h0.125  c0.4140625,0,0.75-0.3359375,0.75-0.75S83.5805664,54.0539551,83.1665039,54.0539551z M29.5,65.5539551  c-0.4140625,0-0.75,0.3359375-0.75,0.75v0.125h-0.125c-0.4140625,0-0.75,0.3359375-0.75,0.75s0.3359375,0.75,0.75,0.75h0.125v0.125  c0,0.4140625,0.3359375,0.75,0.75,0.75s0.75-0.3359375,0.75-0.75v-0.125h0.125c0.4140625,0,0.75-0.3359375,0.75-0.75  s-0.3359375-0.75-0.75-0.75H30.25v-0.125C30.25,65.8898926,29.9140625,65.5539551,29.5,65.5539551z M70.4995117,68.8039551  c0.4140625,0,0.75-0.3359375,0.75-0.75v-0.125h0.125c0.4140625,0,0.75-0.3359375,0.75-0.75s-0.3359375-0.75-0.75-0.75h-0.125v-0.125  c0-0.4140625-0.3359375-0.75-0.75-0.75s-0.75,0.3359375-0.75,0.75v0.125h-0.125c-0.4140625,0-0.75,0.3359375-0.75,0.75  s0.3359375,0.75,0.75,0.75h0.125v0.125C69.7495117,68.4680176,70.0854492,68.8039551,70.4995117,68.8039551z" fill="#858680"/></svg>