<svg xmlns="http://www.w3.org/2000/svg" viewBox="0 0 24 24" enable-background="new 0 0 24 24">
    <path style="text-indent:0;text-align:start;line-height:normal;text-transform:none;block-progression:tb;-inkscape-font-specification:Bitstream Vera Sans" d="M 12 0 C 9.6221929 0 7.6447019 1.7191745 7.125 4 L 6.8125 4 C 6.4125 4 6 4.4125 6 4.8125 L 6 6.1875 C 6 6.5875 6.4125 7 6.8125 7 L 7.5 7 C 7.8 7 8 6.8 8 6.5 L 8 5.1875 C 8 2.8439103 9.78 1 12 1 C 14.22 1 16 2.8439103 16 5.1875 L 16 6.5 C 16 6.8 16.2 7 16.5 7 L 17.1875 7 C 17.5875 7 18 6.5875 18 6.1875 L 18 4.8125 C 18 4.4125 17.5875 4 17.1875 4 L 16.875 4 C 16.355298 1.7191745 14.377807 0 12 0 z M 12 2 C 10.343146 2 9 3.3431458 9 5 C 9 6.6568542 10.343146 8 12 8 C 13.656854 8 15 6.6568542 15 5 C 15 3.3431458 13.656854 2 12 2 z M 12 9 C 8.6 9 7.60625 9.39375 6.90625 10.59375 L 2.8125 18 L 5.59375 18 L 5.90625 18 C 6.30625 17.3 7.19375 15.59375 8.09375 14.09375 L 8.09375 19.09375 L 9.3125 19.90625 C 9.3125 20.00625 9.30625 20 9.40625 20 L 14.59375 20 C 14.69375 20 14.7125 20.00625 14.8125 19.90625 L 16 19.09375 L 16 14.09375 C 16.8 15.59375 17.7875 17.3 18.1875 18 L 18.5 18 L 21.3125 18 L 17.1875 10.59375 C 16.3875 9.39375 15.4 9 12 9 z M 0.90625 19 C 0.40625 19 0 19.40625 0 19.90625 L 0 24 L 24 24 L 24.09375 24 L 24.09375 20 C 24.09375 19.5 23.6875 19.09375 23.1875 19.09375 L 18.5 19.09375 C 18.2 19.09375 17.8875 19.1125 17.6875 19.3125 L 15.40625 20.8125 C 15.10625 20.9125 14.89375 21 14.59375 21 L 9.40625 21 C 9.10625 21 8.8875 20.8875 8.6875 20.6875 L 6.40625 19.1875 C 6.20625 19.0875 5.89375 19 5.59375 19 L 0.90625 19 z" overflow="visible" enable-background="accumulate" font-family="Bitstream Vera Sans" fill="#858680"/>
</svg>