<?xml version="1.0" encoding="iso-8859-1"?>
<!-- Uploaded to: SVG Repo, www.svgrepo.com, Generator: SVG Repo Mixer Tools -->
<svg fill="#858680" height="800px" width="800px" version="1.1" id="Layer_1" xmlns="http://www.w3.org/2000/svg" xmlns:xlink="http://www.w3.org/1999/xlink" 
	 viewBox="0 0 512 512" xml:space="preserve">
<g>
	<g>
		<g>
			<path d="M256,254.366c-17.42,0-31.591,14.172-31.591,31.592S238.58,317.549,256,317.549s31.592-14.172,31.592-31.591
				S273.42,254.366,256,254.366z"/>
			<path d="M256,194.451c-50.457,0-91.506,41.049-91.506,91.506s41.049,91.506,91.506,91.506s91.506-41.049,91.506-91.506
				S306.457,194.451,256,194.451z M256,350.23c-35.44,0-64.272-28.832-64.272-64.272S220.56,221.685,256,221.685
				c35.44,0,64.272,28.832,64.272,64.272C320.272,321.398,291.44,350.23,256,350.23z"/>
			<path d="M447.728,119.83H341.294l-9.355-46.778c-1.527-7.639-8.234-13.137-16.023-13.137h-119.83
				c-7.789,0-14.496,5.498-16.022,13.137l-9.357,46.778H64.272C28.832,119.83,0,148.662,0,184.102v203.711
				c0,35.44,28.832,64.272,64.272,64.272h383.455c35.44,0,64.272-28.832,64.272-64.272V184.102
				C512,148.662,483.168,119.83,447.728,119.83z M256,410.145c-68.477,0-124.187-55.71-124.187-124.187S187.523,161.77,256,161.77
				s124.187,55.71,124.187,124.187C380.187,354.435,324.477,410.145,256,410.145z M435.745,212.426h-27.353
				c-9.024,0-16.34-7.316-16.34-16.34c0-9.024,7.316-16.34,16.34-16.34h27.353c9.024,0,16.34,7.316,16.34,16.34
				C452.085,205.109,444.769,212.426,435.745,212.426z"/>
			<path d="M154.425,76.255c0-9.024-7.316-16.34-16.34-16.34H66.186c-9.024,0-16.34,7.316-16.34,16.34v10.894h104.579V76.255z"/>
		</g>
	</g>
</g>
</svg>